<svg height="343.865153" viewBox="0 0 592 699.99999" width="290.811672" xmlns="http://www.w3.org/2000/svg" xmlns:xlink="http://www.w3.org/1999/xlink"><clipPath id="a"><path clip-rule="evenodd" d="m215.9 394.4671v-143.1091h143.11v143.1091"/></clipPath><clipPath id="b"><path d="m215.9 251.67h142.7971v142.7971h-142.7971z"/></clipPath><clipPath id="c"><path clip-rule="evenodd" d="m215.9 394.4671v-143.1091h143.11v143.1091"/></clipPath><clipPath id="d"><path d="m215.9 251.67h142.7971v142.7971h-142.7971z"/></clipPath><clipPath id="e"><path clip-rule="evenodd" d="m215.9 394.4671v-143.1091h143.11v143.1091"/></clipPath><clipPath id="f"><path d="m215.9 251.67h142.7971v142.7971h-142.7971z"/></clipPath><clipPath id="g"><path clip-rule="evenodd" d="m215.9 394.4671v-143.1091h143.11v143.1091"/></clipPath><clipPath id="h"><path d="m215.9 251.67h142.7971v142.7971h-142.7971z"/></clipPath><clipPath id="i"><path clip-rule="evenodd" d="m215.9 394.4671v-143.1091h143.11v143.1091"/></clipPath><clipPath id="j"><path d="m215.9 251.67h142.7971v142.7971h-142.7971z"/></clipPath><clipPath id="k"><path clip-rule="evenodd" d="m215.9 394.4671v-143.1091h143.11v143.1091"/></clipPath><clipPath id="l"><path d="m215.9 251.67h142.7971v142.7971h-142.7971z"/></clipPath><clipPath id="m"><path clip-rule="evenodd" d="m215.9 394.4671v-143.1091h143.11v143.1091"/></clipPath><clipPath id="n"><path d="m215.9 251.67h142.7971v142.7971h-142.7971z"/></clipPath><clipPath id="o"><path clip-rule="evenodd" d="m215.9 394.4671v-143.1091h143.11v143.1091"/></clipPath><clipPath id="p"><path d="m215.9 251.67h142.7971v142.7971h-142.7971z"/></clipPath><clipPath id="q"><path clip-rule="evenodd" d="m215.9 394.4671v-143.1091h143.11v143.1091"/></clipPath><clipPath id="r"><path d="m215.9 251.67h142.7971v142.7971h-142.7971z"/></clipPath><clipPath id="s"><path clip-rule="evenodd" d="m215.9 394.4671v-143.1091h143.11v143.1091"/></clipPath><clipPath id="t"><path d="m215.9 251.67h142.7971v142.7971h-142.7971z"/></clipPath><clipPath id="u"><path clip-rule="evenodd" d="m215.9 394.4671v-143.1091h143.11v143.1091"/></clipPath><clipPath id="v"><path d="m215.9 251.67h142.7971v142.7971h-142.7971z"/></clipPath><clipPath id="w"><path clip-rule="evenodd" d="m215.9 394.4671v-143.1091h143.11v143.1091"/></clipPath><clipPath id="x"><path d="m215.9 251.67h142.7971v142.7971h-142.7971z"/></clipPath><clipPath id="y"><path clip-rule="evenodd" d="m215.9 394.4671v-143.1091h143.11v143.1091"/></clipPath><clipPath id="z"><path d="m215.9 251.67h142.7971v142.7971h-142.7971z"/></clipPath><clipPath id="A"><path clip-rule="evenodd" d="m215.9 394.4671v-143.1091h143.11v143.1091"/></clipPath><clipPath id="B"><path d="m215.9 251.67h142.7971v142.7971h-142.7971z"/></clipPath><clipPath id="C"><path clip-rule="evenodd" d="m215.9 394.4671v-143.1091h143.11v143.1091"/></clipPath><clipPath id="D"><path d="m215.9 251.67h142.7971v142.7971h-142.7971z"/></clipPath><clipPath id="E"><path clip-rule="evenodd" d="m215.9 394.4671v-143.1091h143.11v143.1091"/></clipPath><clipPath id="F"><path d="m215.9 251.67h142.7971v142.7971h-142.7971z"/></clipPath><clipPath id="G"><path clip-rule="evenodd" d="m215.9 394.4671v-143.1091h143.11v143.1091"/></clipPath><clipPath id="H"><path d="m215.9 251.67h142.7971v142.7971h-142.7971z"/></clipPath><clipPath id="I"><path clip-rule="evenodd" d="m215.9 394.4671v-143.1091h143.11v143.1091"/></clipPath><clipPath id="J"><path d="m215.9 251.67h142.7971v142.7971h-142.7971z"/></clipPath><clipPath id="K"><path clip-rule="evenodd" d="m215.9 394.4671v-143.1091h143.11v143.1091"/></clipPath><clipPath id="L"><path d="m215.9 251.67h142.7971v142.7971h-142.7971z"/></clipPath><clipPath id="M"><path clip-rule="evenodd" d="m215.9 394.4671v-143.1091h143.11v143.1091"/></clipPath><clipPath id="N"><path d="m215.9 251.67h142.7971v142.7971h-142.7971z"/></clipPath><clipPath id="O"><path clip-rule="evenodd" d="m215.9 394.4671v-143.1091h143.11v143.1091"/></clipPath><clipPath id="P"><path d="m215.9 251.67h142.7971v142.7971h-142.7971z"/></clipPath><clipPath id="Q"><path clip-rule="evenodd" d="m215.9 394.4671v-143.1091h143.11v143.1091"/></clipPath><clipPath id="R"><path d="m215.9 251.67h142.7971v142.7971h-142.7971z"/></clipPath><clipPath id="S"><path clip-rule="evenodd" d="m215.9 394.4671v-143.1091h143.11v143.1091"/></clipPath><clipPath id="T"><path d="m215.9 251.67h142.7971v142.7971h-142.7971z"/></clipPath><clipPath id="U"><path clip-rule="evenodd" d="m215.9 394.4671v-143.1091h143.11v143.1091"/></clipPath><clipPath id="V"><path d="m215.9 251.67h142.7971v142.7971h-142.7971z"/></clipPath><clipPath id="W"><path clip-rule="evenodd" d="m215.9 394.4671v-143.1091h143.11v143.1091"/></clipPath><clipPath id="X"><path d="m215.9 251.67h142.7971v142.7971h-142.7971z"/></clipPath><clipPath id="Y"><path clip-rule="evenodd" d="m215.9 394.4671v-143.1091h143.11v143.1091"/></clipPath><clipPath id="Z"><path d="m215.9 251.67h142.7971v142.7971h-142.7971z"/></clipPath><clipPath id="aa"><path clip-rule="evenodd" d="m215.9 394.4671v-143.1091h143.11v143.1091"/></clipPath><clipPath id="ab"><path d="m215.9 251.67h142.7971v142.7971h-142.7971z"/></clipPath><clipPath id="ac"><path clip-rule="evenodd" d="m215.9 394.4671v-143.1091h143.11v143.1091"/></clipPath><clipPath id="ad"><path d="m215.9 251.67h142.7971v142.7971h-142.7971z"/></clipPath><clipPath id="ae"><path clip-rule="evenodd" d="m215.9 394.4671v-143.1091h143.11v143.1091"/></clipPath><clipPath id="af"><path d="m215.9 251.67h142.7971v142.7971h-142.7971z"/></clipPath><clipPath id="ag"><path clip-rule="evenodd" d="m215.9 394.4671v-143.1091h143.11v143.1091"/></clipPath><clipPath id="ah"><path d="m215.9 251.67h142.7971v142.7971h-142.7971z"/></clipPath><clipPath id="ai"><path clip-rule="evenodd" d="m215.9 394.4671v-143.1091h143.11v143.1091"/></clipPath><clipPath id="aj"><path d="m215.9 251.67h142.7971v142.7971h-142.7971z"/></clipPath><clipPath id="ak"><path clip-rule="evenodd" d="m215.9 394.4671v-143.1091h143.11v143.1091"/></clipPath><clipPath id="al"><path d="m215.9 251.67h142.7971v142.7971h-142.7971z"/></clipPath><clipPath id="am"><path clip-rule="evenodd" d="m215.9 394.4671v-143.1091h143.11v143.1091"/></clipPath><clipPath id="an"><path d="m215.9 251.67h142.7971v142.7971h-142.7971z"/></clipPath><clipPath id="ao"><path clip-rule="evenodd" d="m215.9 394.4671v-143.1091h143.11v143.1091"/></clipPath><clipPath id="ap"><path d="m215.9 251.67h142.7971v142.7971h-142.7971z"/></clipPath><clipPath id="aq"><path clip-rule="evenodd" d="m215.9 394.4671v-143.1091h143.11v143.1091"/></clipPath><clipPath id="ar"><path d="m215.9 251.67h142.7971v142.7971h-142.7971z"/></clipPath><clipPath id="as"><path clip-rule="evenodd" d="m215.9 394.4671v-143.1091h143.11v143.1091"/></clipPath><clipPath id="at"><path d="m215.9 251.67h142.7971v142.7971h-142.7971z"/></clipPath><clipPath id="au"><path clip-rule="evenodd" d="m215.9 394.4671v-143.1091h143.11v143.1091"/></clipPath><clipPath id="av"><path d="m215.9 251.67h142.7971v142.7971h-142.7971z"/></clipPath><clipPath id="aw"><path clip-rule="evenodd" d="m215.9 394.4671v-143.1091h143.11v143.1091"/></clipPath><clipPath id="ax"><path d="m215.9 251.67h142.7971v142.7971h-142.7971z"/></clipPath><clipPath id="ay"><path clip-rule="evenodd" d="m215.9 394.4671v-143.1091h143.11v143.1091"/></clipPath><clipPath id="az"><path d="m215.9 251.67h142.7971v142.7971h-142.7971z"/></clipPath><clipPath id="aA"><path clip-rule="evenodd" d="m215.9 394.4671v-143.1091h143.11v143.1091"/></clipPath><clipPath id="aB"><path d="m215.9 251.67h142.7971v142.7971h-142.7971z"/></clipPath><clipPath id="aC"><path clip-rule="evenodd" d="m215.9 394.4671v-143.1091h143.11v143.1091"/></clipPath><clipPath id="aD"><path d="m215.9 251.67h142.7971v142.7971h-142.7971z"/></clipPath><clipPath id="aE"><path clip-rule="evenodd" d="m215.9 394.4671v-143.1091h143.11v143.1091"/></clipPath><clipPath id="aF"><path d="m215.9 251.67h142.7971v142.7971h-142.7971z"/></clipPath><clipPath id="aG"><path clip-rule="evenodd" d="m215.9 394.4671v-143.1091h143.11v143.1091"/></clipPath><clipPath id="aH"><path d="m215.9 251.67h142.7971v142.7971h-142.7971z"/></clipPath><clipPath id="aI"><path clip-rule="evenodd" d="m215.9 394.4671v-143.1091h143.11v143.1091"/></clipPath><clipPath id="aJ"><path d="m215.9 251.67h142.7971v142.7971h-142.7971z"/></clipPath><clipPath id="aK"><path clip-rule="evenodd" d="m215.9 394.4671v-143.1091h143.11v143.1091"/></clipPath><clipPath id="aL"><path d="m215.9 251.67h142.7971v142.7971h-142.7971z"/></clipPath><clipPath id="aM"><path clip-rule="evenodd" d="m215.9 394.4671v-143.1091h143.11v143.1091"/></clipPath><clipPath id="aN"><path d="m215.9 251.67h142.7971v142.7971h-142.7971z"/></clipPath><clipPath id="aO"><path clip-rule="evenodd" d="m215.9 394.4671v-143.1091h143.11v143.1091"/></clipPath><clipPath id="aP"><path d="m215.9 251.67h142.7971v142.7971h-142.7971z"/></clipPath><clipPath id="aQ"><path clip-rule="evenodd" d="m215.9 394.4671v-143.1091h143.11v143.1091"/></clipPath><clipPath id="aR"><path d="m215.9 251.67h142.7971v142.7971h-142.7971z"/></clipPath><clipPath id="aS"><path clip-rule="evenodd" d="m215.9 394.4671v-143.1091h143.11v143.1091"/></clipPath><clipPath id="aT"><path d="m215.9 251.67h142.7971v142.7971h-142.7971z"/></clipPath><clipPath id="aU"><path clip-rule="evenodd" d="m215.9 394.4671v-143.1091h143.11v143.1091"/></clipPath><clipPath id="aV"><path d="m215.9 251.67h142.7971v142.7971h-142.7971z"/></clipPath><clipPath id="aW"><path clip-rule="evenodd" d="m215.9 394.4671v-143.1091h143.11v143.1091"/></clipPath><clipPath id="aX"><path d="m215.9 251.67h142.7971v142.7971h-142.7971z"/></clipPath><clipPath id="aY"><path clip-rule="evenodd" d="m215.9 394.4671v-143.1091h143.11v143.1091"/></clipPath><clipPath id="aZ"><path d="m215.9 251.67h142.7971v142.7971h-142.7971z"/></clipPath><clipPath id="a0"><path clip-rule="evenodd" d="m215.9 394.4671v-143.1091h143.11v143.1091"/></clipPath><clipPath id="a1"><path d="m215.9 251.67h142.7971v142.7971h-142.7971z"/></clipPath><clipPath id="a2"><path clip-rule="evenodd" d="m215.9 394.4671v-143.1091h143.11v143.1091"/></clipPath><clipPath id="a3"><path d="m215.9 251.67h142.7971v142.7971h-142.7971z"/></clipPath><clipPath id="a4"><path clip-rule="evenodd" d="m215.9 394.4671v-143.1091h143.11v143.1091"/></clipPath><clipPath id="a5"><path d="m215.9 251.67h142.7971v142.7971h-142.7971z"/></clipPath><clipPath id="a6"><path clip-rule="evenodd" d="m215.9 394.4671v-143.1091h143.11v143.1091"/></clipPath><clipPath id="a7"><path d="m215.9 251.67h142.7971v142.7971h-142.7971z"/></clipPath><clipPath id="a8"><path clip-rule="evenodd" d="m215.9 394.4671v-143.1091h143.11v143.1091"/></clipPath><clipPath id="a9"><path d="m215.9 251.67h142.7971v142.7971h-142.7971z"/></clipPath><clipPath id="ba"><path clip-rule="evenodd" d="m215.9 394.4671v-143.1091h143.11v143.1091"/></clipPath><clipPath id="bb"><path d="m215.9 251.67h142.7971v142.7971h-142.7971z"/></clipPath><clipPath id="bc"><path clip-rule="evenodd" d="m215.9 394.4671v-143.1091h143.11v143.1091"/></clipPath><clipPath id="bd"><path d="m215.9 251.67h142.7971v142.7971h-142.7971z"/></clipPath><clipPath id="be"><path clip-rule="evenodd" d="m215.9 394.4671v-143.1091h143.11v143.1091"/></clipPath><clipPath id="bf"><path d="m215.9 251.67h142.7971v142.7971h-142.7971z"/></clipPath><clipPath id="bg"><path clip-rule="evenodd" d="m215.9 394.4671v-143.1091h143.11v143.1091"/></clipPath><clipPath id="bh"><path d="m215.9 251.67h142.7971v142.7971h-142.7971z"/></clipPath><clipPath id="bi"><path clip-rule="evenodd" d="m215.9 394.4671v-143.1091h143.11v143.1091"/></clipPath><clipPath id="bj"><path d="m215.9 251.67h142.7971v142.7971h-142.7971z"/></clipPath><clipPath id="bk"><path clip-rule="evenodd" d="m215.9 394.4671v-143.1091h143.11v143.1091"/></clipPath><clipPath id="bl"><path d="m215.9 251.67h142.7971v142.7971h-142.7971z"/></clipPath><clipPath id="bm"><path clip-rule="evenodd" d="m215.9 394.4671v-143.1091h143.11v143.1091"/></clipPath><clipPath id="bn"><path d="m215.9 251.67h142.7971v142.7971h-142.7971z"/></clipPath><clipPath id="bo"><path clip-rule="evenodd" d="m215.9 394.4671v-143.1091h143.11v143.1091"/></clipPath><clipPath id="bp"><path d="m215.9 251.67h142.7971v142.7971h-142.7971z"/></clipPath><clipPath id="bq"><path clip-rule="evenodd" d="m215.9 394.4671v-143.1091h143.11v143.1091"/></clipPath><clipPath id="br"><path d="m215.9 251.67h142.7971v142.7971h-142.7971z"/></clipPath><clipPath id="bs"><path clip-rule="evenodd" d="m215.9 394.4671v-143.1091h143.11v143.1091"/></clipPath><clipPath id="bt"><path d="m215.9 251.67h142.7971v142.7971h-142.7971z"/></clipPath><clipPath id="bu"><path clip-rule="evenodd" d="m215.9 394.4671v-143.1091h143.11v143.1091"/></clipPath><clipPath id="bv"><path d="m215.9 251.67h142.7971v142.7971h-142.7971z"/></clipPath><clipPath id="bw"><path clip-rule="evenodd" d="m215.9 394.4671v-143.1091h143.11v143.1091"/></clipPath><clipPath id="bx"><path d="m215.9 251.67h142.7971v142.7971h-142.7971z"/></clipPath><clipPath id="by"><path clip-rule="evenodd" d="m215.9 394.4671v-143.1091h143.11v143.1091"/></clipPath><clipPath id="bz"><path d="m215.9 251.67h142.7971v142.7971h-142.7971z"/></clipPath><clipPath id="bA"><path clip-rule="evenodd" d="m215.9 394.4671v-143.1091h143.11v143.1091"/></clipPath><clipPath id="bB"><path d="m215.9 251.67h142.7971v142.7971h-142.7971z"/></clipPath><g clip-path="url(#a)" transform="matrix(7.537450375 0 0 -7.537450375 -1873.32175 2783.79523)"><g clip-path="url(#b)"><path d="m287.7578 364.5188c19.1581 0 32.7847-6.8487 32.7847-6.8487 10.7146-58.4951-32.7847-76.4787-32.7847-76.4787" fill="#fefefe"/></g></g><g clip-path="url(#c)" transform="matrix(7.537450375 0 0 -7.537450375 -1873.32175 2783.79523)"><g clip-path="url(#d)"><path d="m142.38 223.6c37.96 0 64.96-13.57 64.96-13.57 21.23-115.903-64.96-151.536-64.96-151.536" style="fill:none;stroke:#fefefe;stroke-width:5.7762;stroke-linecap:round;stroke-linejoin:round;stroke-miterlimit:10" transform="matrix(.5046904 0 0 .5046904 215.9 251.67)"/></g></g><g clip-path="url(#e)" transform="matrix(7.537450375 0 0 -7.537450375 -1873.32175 2783.79523)"><g clip-path="url(#f)"><path d="m257.9246 355.399c-.8711-5.3396-1.3254-10.5632-1.3254-15.4889 0-17.3008 5.376-31.8763 15.9372-43.3474 6.2884-6.7391 12.6828-10.4118 15.2618-11.6987.7924.4164 2.044 1.0977 3.6338 2.0823 2.7606 1.7412 6.9647 4.7704 11.2041 9.2379 10.8306 11.4711 16.3166 26.198 16.3166 43.7259 0 4.9257-.4138 10.1493-1.3223 15.4889-.2271.111-.4946.2271-.7217.3028-1.3626.5653-3.5934 1.398-6.4752 2.2711-5.1074 1.5141-13.1724 3.2906-22.6353 3.2906h-.0404c-14.5754 0-25.8205-4.1233-29.8332-5.8645zm29.8736-77.5013c-.4946 0-.9488.1136-1.4031.3029-1.0245.4542-9.69 4.3539-18.2496 13.4404-8.2905 8.7452-18.1718 24.2307-18.1718 48.2691 0 5.8695.6061 12.0419 1.7417 18.3656.1892 1.0195.8327 1.8926 1.7795 2.3469l.0378.0353c1.5141.7217 15.2588 7.1969 34.2655 7.2322 18.9663-.0353 32.709-6.5105 34.223-7.2322l.0354-.0353c.9488-.4543 1.5948-1.3274 1.7815-2.3469 1.1356-6.3237 1.7412-12.4961 1.7412-18.3656 0-24.0384-9.8818-39.5239-18.1739-48.2691-8.4031-8.8972-16.6951-12.7591-18.2849-13.4404-.3785-.1893-.8681-.3029-1.3223-.3029z" fill="#fefefe"/></g></g><g clip-path="url(#g)" transform="matrix(7.537450375 0 0 -7.537450375 -1873.32175 2783.79523)"><g clip-path="url(#h)"><path d="m259.2494 354.3745c4.4296 1.8169 14.9928 5.4506 28.5084 5.4506h.0404c9.3115 0 17.2251-1.7765 22.2215-3.2552 2.801-.8327 4.9611-1.6655 6.2834-2.1954.7974-4.9964 1.2113-9.8415 1.2113-14.4644 0-17.1494-5.375-31.5331-15.9382-42.7418-4.1283-4.3539-8.2163-7.3069-10.9417-9.0107-1.1355-.7192-2.1197-1.2491-2.8363-1.666-2.8414 1.5146-8.5596 4.998-14.1616 11.0931-10.3361 11.1305-15.5606 25.4031-15.5985 42.3254 0 4.6229.4164 9.468 1.2113 14.4644zm28.5488 14.954c-19.3095 0-33.3192-6.5862-34.9089-7.3433v-.0404h-.0379c-1.3632-.6813-2.2716-1.9279-2.5371-3.4066-1.1734-6.3995-1.779-12.6829-1.779-18.6281-.0379-24.533 10.0706-40.3566 18.5504-49.2916 8.7463-9.2379 17.5683-13.2507 18.7391-13.7433.6057-.2649 1.287-.4163 1.9734-.4163.6813 0 1.3223.1514 1.9279.4163 1.7059.7197 10.1847 4.6947 18.7392 13.7433 8.4838 8.935 18.5927 24.7586 18.5524 49.2916 0 5.9452-.5653 12.2286-1.7412 18.6281-.3028 1.4787-1.2113 2.7253-2.5386 3.4066h-.0757v.0404c-1.6251.7924-15.6353 7.3433-34.864 7.3433zm0-86.0926c.1514.0757.3785.1892.6409.3028.8732.4542 2.1954 1.1739 3.7499 2.158 3.1392 1.9688 7.3079 5.0353 11.5069 9.465 8.3678 8.8598 16.7356 23.0164 16.7356 44.7484 0 5.0771-.4543 10.5631-1.5141 16.5084-.3432.1918-.8731.3785-1.4787.646-1.5141.6056-3.7449 1.4737-6.5863 2.3064-5.6777 1.6655-13.7073 3.3714-23.0542 3.3714h-.0404c-15.9028 0-27.9785-4.8855-31.1207-6.3238-1.0599-5.9453-1.5146-11.4313-1.5146-16.5084 0-21.3888 8.1402-35.4343 16.354-44.332 6.9698-7.5341 14.0859-11.2819 16.3217-12.3422zm0 83.1805c19.5719 0 33.466-7.0051 33.6174-7.0808.4896-.2675.8681-.757.9842-1.3273 1.1759-6.5105 1.7058-12.5315 1.7058-18.0982.0353-22.7162-8.8624-37.8957-17.76-47.285-8.4788-8.9729-16.9223-12.7207-17.7904-13.0992-.2271-.0757-.4946-.1519-.757-.1519-.3028 0-.5703.0762-.7974.1519-.8731.3785-9.3116 4.1263-17.7954 13.0992-8.8957 9.3893-17.755 24.5688-17.755 47.285 0 5.5667.5299 11.5877 1.7038 18.0982.1136.5703.4921 1.0598.9842 1.3273.1514.0757 14.0475 7.0808 33.6598 7.0808z" fill="#ac141a"/></g></g><g clip-path="url(#i)" transform="matrix(7.537450375 0 0 -7.537450375 -1873.32175 2783.79523)"><g clip-path="url(#j)"><path d="m255.9179 358.1597 31.3857 7.0051 33.3146-7.0051 2.6547-22.2619-1.5948-10.0333s-4.729-16.6548-10.1797-23.4731c-5.4153-6.8512-12.7989-13.8553-12.7989-13.8553l-10.5228-6.8527s-5.9452 0-15.4132 11.7366c-9.5008 11.7724-16.5049 23.3601-17.7167 34.756-1.2491 11.3959.1519 26.6527.1519 26.6527z" fill="#ac141a"/></g></g><g clip-path="url(#k)" transform="matrix(7.537450375 0 0 -7.537450375 -1873.32175 2783.79523)"><g clip-path="url(#l)"><path d="m287.9496 282.9709c-.4189 0-.7974.1514-1.0649.4164-12.1529 7.6097-19.4962 17.2639-23.7356 26.9176-4.3161 9.7708-5.4895 19.5719-5.4895 27.4098 0 9.8061 1.8547 16.6194 1.8926 16.7355.1135.4946.4547.8731.8711 1.1002.1135.0353 12.6834 5.9806 27.4859 6.0159h.0404.0353.0404c14.8026-.0353 27.3694-5.9806 27.4854-6.0159.4139-.2271.7571-.6056.9085-1.1002 0-.1161 1.8522-6.9294 1.8522-16.7355 0-7.8379-1.1709-17.639-5.486-27.4098-4.2444-9.6537-11.5877-19.3079-23.7003-26.9176-.3028-.265-.6813-.4164-1.1002-.4164z" fill="#fefefe"/></g></g><g clip-path="url(#m)" transform="matrix(7.537450375 0 0 -7.537450375 -1873.32175 2783.79523)"><g clip-path="url(#n)"><path d="m142.38 58.494s-86.193 35.633-64.964 151.536c0 0 27.004 13.57 64.964 13.57 37.96 0 64.96-13.57 64.96-13.57 21.23-115.903-64.96-151.536-64.96-151.536z" style="fill:none;stroke:#ac141a;stroke-width:12.453;stroke-linecap:round;stroke-linejoin:round;stroke-miterlimit:10" transform="matrix(.5046904 0 0 .5046904 215.9 251.67)"/></g></g><g clip-path="url(#o)" transform="matrix(7.537450375 0 0 -7.537450375 -1873.32175 2783.79523)"><g clip-path="url(#p)"><path d="m257.0156 356.1157c-.9463-5.6021-1.4384-11.0528-1.4384-16.2056 0-17.5633 5.4517-32.4062 16.2425-44.0292 6.778-7.3069 13.7023-11.0548 15.9785-12.153.111.0757.2624.1514.4542.2271.7924.4169 2.0793 1.0982 3.7095 2.1202 2.8363 1.7796 7.1161 4.8461 11.3959 9.3893 11.0174 11.7013 16.6194 26.6552 16.6194 44.4456 0 5.1528-.4542 10.6035-1.4383 16.2056-.4189.1918-.8328.3785-1.2517.5299-1.3979.5703-3.6691 1.4384-6.5862 2.3115-5.1478 1.514-13.2885 3.3309-22.9028 3.3309h-.0404c-15.4486 0-27.1831-4.5826-30.7422-6.1723zm30.7826-77.196c-.3432 0-.6864.0757-.9892.2272-.9084.4168-9.4226 4.2025-17.9417 13.1754-8.1412 8.6322-17.8711 23.8522-17.8711 47.5878 0 5.7938.6056 11.9258 1.7411 18.1739.1141.7217.5683 1.3273 1.2118 1.6301 1.5146.757 15.0696 7.1161 33.8491 7.1565 18.7391-.0404 32.2901-6.3995 33.7688-7.1212.6814-.3381 1.1356-.9437 1.2466-1.6654 1.1759-6.2481 1.7462-12.3801 1.7462-18.1739 0-23.7356-9.7304-38.9556-17.8711-47.5878-8.4838-8.935-16.9979-12.7586-17.9467-13.1754-.3029-.1515-.641-.2272-.9438-.2272z" fill="#ac141a"/></g></g><g clip-path="url(#q)" transform="matrix(7.537450375 0 0 -7.537450375 -1873.32175 2783.79523)"><g clip-path="url(#r)"><path d="m257.3941 355.8129c3.7862 1.6301 15.2937 6.0562 30.3637 6.0562h.0404c9.5386 0 17.6793-1.8168 22.7868-3.3309 2.9171-.8681 5.1528-1.7412 6.5508-2.2711.3432-.1514.6814-.3028 1.0246-.4542.9084-5.4911 1.398-10.8257 1.398-15.9028 0-17.6793-5.5617-32.5172-16.5034-44.1428-4.2445-4.5054-8.5192-7.5718-11.3202-9.3135-1.5898-1.022-2.8768-1.7034-3.7095-2.1197-.0757-.0379-.1514-.0757-.2271-.1136-2.4276 1.1734-9.1248 4.8839-15.6757 11.9637-10.6772 11.5468-16.091 26.2737-16.1289 43.7259 0 5.0771.4921 10.4117 1.4005 15.9028zm30.4041-72.577c.1514.0757.3785.1892.6409.3028.8732.4542 2.1954 1.1739 3.7499 2.158 3.1392 1.9688 7.3079 5.0353 11.5069 9.465 8.3678 8.8598 16.7356 23.0164 16.7356 44.7484 0 5.0771-.4543 10.5631-1.5141 16.5084-.3432.1918-.8731.3785-1.4787.646-1.5141.6056-3.7449 1.4737-6.5863 2.3064-5.6777 1.6655-13.7073 3.3714-23.0542 3.3714h-.0404c-15.9028 0-27.9785-4.8855-31.1207-6.3238-1.0599-5.9453-1.5146-11.4313-1.5146-16.5084.0379-21.3888 8.1402-35.4343 16.354-44.332 6.9698-7.5341 14.0859-11.2819 16.3217-12.3422z" fill="#fefefe"/></g></g><g clip-path="url(#s)" transform="matrix(7.537450375 0 0 -7.537450375 -1873.32175 2783.79523)"><g clip-path="url(#t)"><path d="m302.2979 345.6282c-.2271-.0757-.4946-.1867-.7217-.2271-.2624-.0353-.5299-.0757-.7166-.0757v.2271c.1867 0 .4138.0404.6409.0757.2675.0757.4946.1514.7217.2271z" fill="#fefefe"/></g></g><g clip-path="url(#u)" transform="matrix(7.537450375 0 0 -7.537450375 -1873.32175 2783.79523)"><g clip-path="url(#v)"><path d="m292.4514 354.7177c0-.2675-.1867-.4189-.6409-.4189h-2.1601c-.4542 0-.641.1514-.641.4189v1.0195h1.0599v-.8681h1.3223v.8327l-2.155 1.2466c-.1515.0757-.2272.1918-.2272.3432v.9438c0 .2675.1868.4189.641.4189h2.1601c.4542 0 .6409-.1514.6409-.4189v-.9438h-1.0598v.7924h-1.3223v-.7571l2.155-1.2466c.1514-.0757.2271-.1917.2271-.3431z" fill="#ac141a"/></g></g><g clip-path="url(#w)" transform="matrix(7.537450375 0 0 -7.537450375 -1873.32175 2783.79523)"><g clip-path="url(#x)"><path d="m285.7895 355.5504-.5299 1.9683-.5299-1.9683zm1.4384-1.3677h-1.0599l-.2271.8378h-1.3626l-.2271-.8378h-1.0599l1.398 4.3555h1.1355z" fill="#ac141a"/></g></g><g clip-path="url(#y)" transform="matrix(7.537450375 0 0 -7.537450375 -1873.32175 2783.79523)"><g clip-path="url(#z)"><path d="m267.656 337.755c.1514-.5703-.1514-.9841-.8327-1.2869-1.4026-.646-2.0839-.9842-3.4471-1.6655-.6813-.3432-1.0603-.2675-1.2496.2624-.9841 2.9171-1.4762 4.3555-2.4987 7.2676-.1893.5349.0757 1.0245.7954 1.403 1.5519.7974 2.3473 1.1759 3.9371 1.8926.7575.3432 1.2117.1918 1.3631-.3785.2271-.8328.3407-1.287.5678-2.155-.757-.3029-1.0977-.4543-1.8174-.7621-.2271.7217-.3028 1.0649-.5299 1.7815-.9463-.4542-1.4384-.6813-2.3852-1.1355.8711-2.69 1.2875-4.0123 2.1202-6.7023.8706.4542 1.2875.646 2.1959 1.0598-.2271.7571-.3406 1.176-.5299 1.933.6814.3028 1.022.4542 1.7407.757.2271-.9084.3432-1.3626.5703-2.2711z" fill="#ac141a"/></g></g><g clip-path="url(#A)" transform="matrix(7.537450375 0 0 -7.537450375 -1873.32175 2783.79523)"><g clip-path="url(#B)"><path d="m274.5046 342.3729c-.6056 1.6302-.9084 2.4226-1.5494 4.0123-.116-1.8168-.1514-2.7253-.1917-4.5422.7217.2271 1.0598.3382 1.7411.5299zm2.8061-2.4982c-.7217-.1514-1.0598-.2271-1.7412-.3785-.2321.6813-.3835 1.0195-.6106 1.7008-.9085-.2271-1.3223-.3381-2.2308-.6409 0-.7571 0-1.1356 0-1.8926-.6813-.2271-1.0245-.3432-1.7058-.5703v.0404c.1161 4.0476.2271 6.0966.5703 10.1846.7923.2271 1.2112.3381 2.044.5653 1.5494-3.5581 2.3115-5.3346 3.6741-9.0088z" fill="#ac141a"/></g></g><g clip-path="url(#C)" transform="matrix(7.537450375 0 0 -7.537450375 -1873.32175 2783.79523)"><g clip-path="url(#D)"><path d="m286.5466 341.086c-.646-.0404-.9489-.0404-1.5545-.0757-1.1709 2.3468-1.8169 3.5227-3.1392 5.8292.1111-.2625.1514-.4896.1514-.6814.1111-2.155.1868-3.2552.2625-5.4153-.6814-.0757-1.0195-.1514-1.7008-.2271-.2675 3.8659-.4189 5.7938-.7217 9.6951.7217.0757 1.0598.1514 1.7411.2271 1.4031-2.2358 2.044-3.3713 3.2957-5.6778-.0757.2625-.1514.4896-.1514.6814-.0404 2.1197-.0404 3.1795-.0757 5.2992.757.0757 1.1355.0757 1.9279.111-.0353-3.8962-.0353-5.8645-.0353-9.7657z" fill="#ac141a"/></g></g><g clip-path="url(#E)" transform="matrix(7.537450375 0 0 -7.537450375 -1873.32175 2783.79523)"><g clip-path="url(#F)"><path d="m296.1609 340.5561c-.6056.111-.9084.1514-1.5141.2271-.868 2.5739-1.3223 3.8609-2.3468 6.3994.0757-.3028.0757-.5703.0757-.7217-.1514-2.1954-.2624-3.2552-.4138-5.4506-.6813.0353-1.0245.0757-1.7059.0757.1918 3.9366.3028 5.8695.53 9.7657.6813 0 1.0245-.0353 1.7411-.0757 1.0599-2.4982 1.5545-3.7448 2.4629-6.2834-.0404.3029-.0404.5703-.0404.7218.2272 2.1197.3432 3.1795.6057 5.2992.757-.0757 1.1355-.1514 1.8926-.2675-.53-3.8609-.7571-5.7888-1.287-9.69z" fill="#ac141a"/></g></g><g clip-path="url(#G)" transform="matrix(7.537450375 0 0 -7.537450375 -1873.32175 2783.79523)"><g clip-path="url(#H)"><path d="m304.5287 338.5878c-1.8522.6056-2.8011.868-4.6936 1.2869.6813 3.8609 1.0245 5.7939 1.7411 9.6144 2.1197-.4896 3.1796-.7924 5.264-1.4384-.1161-.4895-.1918-.757-.3029-1.2466-1.3273.4139-1.9683.6057-3.2956.9438-.2271-1.0952-.3381-1.6655-.6056-2.7607 1.1002-.3028 1.6655-.4542 2.7657-.7974-.1514-.4895-.1918-.757-.3028-1.2112-1.1003.3028-1.6302.4542-2.69.757-.2625-1.2112-.3785-1.8169-.641-2.9928 1.2466-.3381 1.8522-.5299 3.0635-.9084-.111-.4896-.1867-.7571-.3028-1.2466z" fill="#ac141a"/></g></g><g clip-path="url(#I)" transform="matrix(7.537450375 0 0 -7.537450375 -1873.32175 2783.79523)"><g clip-path="url(#J)"><path d="m313.3153 335.8221c-.1918-.5653-.6056-.641-1.2516-.3382-1.287.641-1.933.9438-3.2553 1.5141-.646.2624-.9084.6813-.757 1.2466.2625.9084.4139 1.3273.6813 2.2358.6814-.3029 1.0195-.4189 1.7008-.7217-.2624-.7571-.3785-1.1356-.6056-1.8926.7974-.3382 1.2113-.53 2.0087-.9438.2271.7167.3785 1.0952.6056 1.8169-.9438 1.6655-1.4787 2.4982-2.5739 4.1283-.1918.3029-.2675.6057-.1514.9085.2271.8327.3785 1.2112.6056 2.044.1868.5652.641.7166 1.4031.3785 1.4737-.6056 2.1954-.9488 3.6691-1.7059.7217-.3381.9841-.8327.757-1.3626-.3028-.7974-.4896-1.2113-.7924-2.0087-.6813.3785-1.0245.5703-1.7058.9085.2271.6863.3432 1.0245.6056 1.7058-.8681.4189-1.3223.6056-2.1954 1.0245-.2271-.6813-.3381-1.0245-.5653-1.6654 1.0952-1.6706 1.5898-2.5033 2.574-4.2445.1514-.3028.1867-.6056.0757-.9084-.3432-.8328-.4946-1.287-.8328-2.1197z" fill="#ac141a"/></g></g><g clip-path="url(#K)" transform="matrix(7.537450375 0 0 -7.537450375 -1873.32175 2783.79523)"><g clip-path="url(#L)"><path d="m283.5184 317.0072c.0353 1.5494 2.155 2.1954 4.2798-.1918-.1918-.0353-.4946-.0353-.646-.1867.3432-.2271.7217-.2271.9841-.4542-2.2711-1.8573-4.6179-.646-4.6179.8327zm14.3837 16.6952c-.4896-.0354-.9438-.1514-1.398-.3382.6056.6057.9438 1.3223 1.1709 2.0794-1.0195-.53-1.9279-1.3627-3.442-1.8169.5299.5299.7166.9841 1.0195 1.4787-.3382-.0757-.6057-.3028-.9438-.646.3785.646.5652 1.5898.5299 2.2358-.8327-1.933-5.6424-5.1882-6.3238-7.1565-.2271.3381-.6056.4895-1.0598.7166.3028-.111.6813-.3381.9488-.3381.0353.5299-.2675.9488-.6056 1.5141.3381-.4543.6056-.6057 1.0598-.7924-.0757.6813-.0757 1.2466-.6056 1.8522.4896-.3381 1.2113-.4138 1.7765-.4542-.1514.646-.868 1.287-1.4383 1.6655.6056-.3785 1.4787-.6057 1.7815-.6057-.3028.4543-.7974 1.176-1.5898 1.5141.0757.1918.3028.2271.53.2675-.0404.1867-.4543.3785-.7571.4138.3382.53.5653.9489.6814 1.4384-.5703-.2624-1.176-.5299-1.7816-.7924-.0353.6057-.3432 1.1709-.4542 1.7009-.1514-.7167-.5703-1.4384-.4946-2.0037-1.398-.4189-2.7607-.6056-3.6338-.2675.0404-.2624.1918-.5652.2675-.8327 0-.3028.0353-.5299.0353-.8327.1161.4542.4542.5299.9085.5299.6056 0 .8731-.1867 1.1002-.4896.0353-.0757.111-.1514.1867-.2674-.6409.1917-1.7412.3785-2.3468.0757-.9841-.4543-1.5898-.4543-2.4578-.1514.0757-.4543.4138-.5653.757-.7571-.4189-.3381-.757-.4895-1.3273-.5299.4542-.6813 1.6655-.4896 2.2358.0757.8327.8731 2.0036 1.0598 3.1391.7217-.3381-.3432-1.2466-.5299-1.6251-.6813-.1161-.0404-.3028.3785-.5299.4895.0353-.4895-.1161-1.398.111-1.398s.9488.4139 1.6302.6057c-1.0599-.4543-1.6655-.6057-2.3468-2.0087.3028.3381.7923.6056 1.0598.757-.5299-.4542-1.0598-1.2112-1.2516-2.0086.1918.3028.4946.4946.7217.7217-.1514-.2675-.3432-.6057-.4542-1.0246-.9488.2272-1.9683.53-2.8768.7571.0757.6813.0757 1.7058-.646 1.9329.1161.6814-.6409.9842-.868.4189.1867-.0757.4138-.2674.3785-.4542-.1514 0-.4189-.1514-.4946-.3432-.3785.0404-.7924-.3432-.7167-.7217.3028.1514.641.1161.8328.0757-.2675-.0757-.3432-.4895-.1918-.7166.2675-.3029.5299-.6057.8327-.8732-.1867-.4138-.4138-.9437-.2624-1.2869-.0757-.2271-.4189-.4896-.6813-.4896.3028-.5703 1.0951-.5703 1.3626.1868.3785-.0757.641.4189.6056.757.2272-.0353.4543-.0757.6814-.111 0-.3028-.2271-.4946-.4542-.646.4138-.3785 1.0951-.1111 1.0951.4946.3786-.0757.7571-.1918 1.176-.3432 0-.4896.1514-1.0195.5652-1.4384l-1.2466-.7923c-.1514.111-.3028.4138-.4189.9084-.111.3785-.5652.6056-.7923.3785-.3432.6056-1.4031.4139-1.287-.4946.2625.2675.757.2675.8328-.0353-.4543-.0757-.7571-.6056-.5703-1.1356.116.3028.3431.1868.4945.3382 0-.7167.6057-.7167 1.3223-.7571.0757-.3381.2271-.8327.6057-.9841-.1111-.2271-.2271-.3381-.53-.3785-.1867-.4542 1.1356-.7924 1.0246.4542.3381.1161.3785.5703.2271.8327.1867.0757.4542.2271.6056.3029.1867-.0354.111-.4139-.3432-.641.4189-.646 1.1356.1514.9488.6813.8681-1.1355 2.5336-1.0598 2.9525-2.9928.111.2675.1867.8731.111 1.1759.4946-.3028.8378-1.1002.9892-1.8168.1514.2271.3028.5299.3381.868.3432-.4542.7974-1.2466.8328-1.7412.0404-.4895-.1111-.757-.2625-1.2869.1868.0757.4896.2271.641.4542-.111-.7217-.2271-1.3627-.757-1.8573-.3786.53-.9842 1.4031-1.5898 1.5898.1867.0808.6813 0 .8731-.0757-1.3273 1.8976-4.5069 1.3677-5.2639-.0353-.2675.3028-.3432.7217-.4189 1.1759-.5299-.6056-.5299-1.8976-.111-2.2358-.4189.1111-.6461.4139-.9842.6814-.1161-.4946-.0757-1.1003.3785-1.5141-.5299.1867-1.0245.5299-1.3626.9438-.1161-.8328.9084-2.1197 2.044-2.3822.4138-.757 1.8925-1.3626 3.0634-1.2516-.111-.111-.3028-.3381-.3028-.5299.3028.1918.4946.3785.7217.3785.5653.0404 2.0844.6813 2.6496 1.1355-.111-1.9683-2.69-3.0281-3.1442-4.956.3028.2624.4946.5299.8328.6813-.2271-.4542-.3786-1.0245-.4139-1.5544.1868.2675.3785.4946.5653.6056-.4896-1.6251-.3028-2.9171.2271-4.4312-.3382.4946-.8328 1.2113-1.3223 1.6302.6056-2.0087 1.2112-4.4665 1.5898-6.6256.4542 2.3105.9488 4.6926 1.5544 6.777-.4542-.4946-.8731-1.0599-1.2163-1.7816-.8681 1.933-.0757 4.3555.9892 6.3238.1514-.3382.3381-.7571.4896-1.0599.0757.9489.116 1.6655.4188 2.4629.3029.7924.3786 1.8522.3029 2.5336.6056.5703 1.1708 1.3626 1.3222 2.6143.1515-.3028.1918-.6814.1918-1.1356.3785.641.4139 1.8573.3382 2.801.3028-.3028.4946-.7166.7217-1.2516.0757 1.0649-.0404 2.3872-.7571 3.5631.3382-.3028.641-.6813.9438-1.1355.1161 1.3626-.8681 3.6337-2.8363 4.9207.0757.1514.2271.2624.3381.3381.8327.0404 1.7412.0404 2.4982-.0353-.2271.3028-.6056.641-.9438.8681.4543.1918 1.287.0404 2.0794.1918.7974.111 1.3273.5299 2.1954.7923-.5653.1161-1.5494.3028-2.3468.3028 1.5544.2675 2.9928.9489 4.204 2.1954-.4946.0808-1.0598-.2271-1.6654-.1867.868.3785 1.6251 1.1759 1.9682 1.933-.3431.0757-.8731-.1161-1.2516-.0757.4542.4138 1.2516.7166 1.5898 1.4737z" fill="#ac141a"/></g></g><g clip-path="url(#M)" transform="matrix(7.537450375 0 0 -7.537450375 -1873.32175 2783.79523)"><g clip-path="url(#N)"><path d="m133.98 129.46c.07 3.07 4.27 4.35 8.48-.38-.38-.07-.98-.07-1.28-.37.68-.45 1.43-.45 1.95-.9-4.5-3.68-9.15-1.28-9.15 1.65zm28.5 33.08c-.97-.07-1.87-.3-2.77-.67 1.2 1.2 1.87 2.62 2.32 4.12-2.02-1.05-3.82-2.7-6.82-3.6 1.05 1.05 1.42 1.95 2.02 2.93-.67-.15-1.2-.6-1.87-1.28.75 1.28 1.12 3.15 1.05 4.43-1.65-3.83-11.18-10.28-12.53-14.18-.45.67-1.2.97-2.1 1.42.6-.22 1.35-.67 1.88-.67.07 1.05-.53 1.88-1.2 3 .67-.9 1.2-1.2 2.1-1.57-.15 1.35-.15 2.47-1.2 3.67.97-.67 2.4-.82 3.52-.9-.3 1.28-1.72 2.55-2.85 3.3 1.2-.75 2.93-1.2 3.53-1.2-.6.9-1.58 2.33-3.15 3 .15.38.6.45 1.05.53-.08.37-.9.75-1.5.82.67 1.05 1.12 1.88 1.35 2.85-1.13-.52-2.33-1.05-3.53-1.57-.07 1.2-.68 2.32-.9 3.37-.3-1.42-1.13-2.85-.98-3.97-2.77-.83-5.47-1.2-7.2-.53.08-.52.38-1.12.53-1.65 0-.6.07-1.05.07-1.65.23.9.9 1.05 1.8 1.05 1.2 0 1.73-.37 2.18-.97.07-.15.22-.3.37-.53-1.27.38-3.45.75-4.65.15-1.95-.9-3.15-.9-4.87-.3.15-.9.82-1.12 1.5-1.5-.83-.67-1.5-.97-2.63-1.05.9-1.35 3.3-.97 4.43.15 1.65 1.73 3.97 2.1 6.22 1.43-.67-.68-2.47-1.05-3.22-1.35-.23-.08-.6.75-1.05.97.07-.97-.23-2.77.22-2.77s1.88.82 3.23 1.2c-2.1-.9-3.3-1.2-4.65-3.98.6.67 1.57 1.2 2.1 1.5-1.05-.9-2.1-2.4-2.48-3.98.38.6.98.98 1.43 1.43-.3-.53-.68-1.2-.9-2.03-1.88.45-3.9 1.05-5.7 1.5.15 1.35.15 3.38-1.28 3.83.23 1.35-1.27 1.95-1.72.83.37-.15.82-.53.75-.9-.3 0-.83-.3-.98-.68-.75.08-1.57-.68-1.42-1.43.6.3 1.27.23 1.65.15-.53-.15-.68-.97-.38-1.42.53-.6 1.05-1.2 1.65-1.73-.37-.82-.82-1.87-.52-2.55-.15-.45-.83-.97-1.35-.97.6-1.13 2.17-1.13 2.7.37.75-.15 1.27.83 1.2 1.5.45-.07.9-.15 1.35-.22 0-.6-.45-.98-.9-1.28.82-.75 2.17-.22 2.17.98.75-.15 1.5-.38 2.33-.68 0-.97.3-2.02 1.12-2.85l-2.47-1.57c-.3.22-.6.82-.83 1.8-.22.75-1.12 1.2-1.57.75-.68 1.2-2.78.82-2.55-.98.52.53 1.5.53 1.65-.07-.9-.15-1.5-1.2-1.13-2.25.23.6.68.37.98.67 0-1.42 1.2-1.42 2.62-1.5.15-.67.45-1.65 1.2-1.95-.22-.45-.45-.67-1.05-.75-.37-.9 2.25-1.57 2.03.9.67.23.75 1.13.45 1.65.37.15.9.45 1.2.6.37-.07.22-.82-.68-1.27.83-1.28 2.25.3 1.88 1.35 1.72-2.25 5.02-2.1 5.85-5.93.22.53.37 1.73.22 2.33.98-.6 1.66-2.18 1.96-3.6.3.45.6 1.05.67 1.72.68-.9 1.58-2.47 1.65-3.45.08-.97-.22-1.5-.52-2.55.37.15.97.45 1.27.9-.22-1.43-.45-2.7-1.5-3.68-.75 1.05-1.95 2.78-3.15 3.15.37.16 1.35 0 1.73-.15-2.63 3.76-8.93 2.71-10.43-.07-.53.6-.68 1.43-.83 2.33-1.05-1.2-1.05-3.76-.22-4.43-.83.22-1.28.82-1.95 1.35-.23-.98-.15-2.18.75-3-1.05.37-2.03 1.05-2.7 1.87-.23-1.65 1.8-4.2 4.05-4.72.82-1.5 3.75-2.7 6.07-2.48-.22-.22-.6-.67-.6-1.05.6.38.98.75 1.43.75 1.12.08 4.13 1.35 5.25 2.25-.22-3.9-5.33-6-6.23-9.82.6.52.98 1.05 1.65 1.35-.45-.9-.75-2.03-.82-3.08.37.53.75.98 1.12 1.2-.97-3.22-.6-5.78.45-8.78-.67.98-1.65 2.4-2.62 3.23 1.2-3.98 2.4-8.85 3.15-13.128.9 4.578 1.88 9.298 3.08 13.428-.9-.98-1.73-2.1-2.41-3.53-1.72 3.83-.15 8.63 1.96 12.53.3-.67.67-1.5.97-2.1.15 1.88.23 3.3.83 4.88.6 1.57.75 3.67.6 5.02 1.2 1.13 2.32 2.7 2.62 5.18.3-.6.38-1.35.38-2.25.75 1.27.82 3.68.67 5.55.6-.6.98-1.42 1.43-2.48.15 2.11-.08 4.73-1.5 7.06.67-.6 1.27-1.35 1.87-2.25.23 2.7-1.72 7.2-5.62 9.75.15.3.45.52.67.67 1.65.08 3.45.08 4.95-.07-.45.6-1.2 1.27-1.87 1.72.9.38 2.55.08 4.12.38 1.58.22 2.63 1.05 4.35 1.57-1.12.23-3.07.6-4.65.6 3.08.53 5.93 1.88 8.33 4.35-.98.16-2.1-.45-3.3-.37 1.72.75 3.22 2.33 3.9 3.83-.68.15-1.73-.23-2.48-.15.9.82 2.48 1.42 3.15 2.92z" style="fill:none;stroke:#ec1c24;stroke-width:.75016;stroke-linecap:round;stroke-linejoin:round;stroke-miterlimit:10" transform="matrix(.5046904 0 0 .5046904 215.9 251.67)"/></g></g><g clip-path="url(#O)" transform="matrix(7.537450375 0 0 -7.537450375 -1873.32175 2783.79523)"><g clip-path="url(#P)"><path d="m286.9251 337.8307c-.1161-.757-.5703-1.4787-.4946-2.044.0757-.4189.9892-.0757.9488.3382-.0404.5703-.3432 1.1759-.4542 1.7058z" fill="#ac141a"/></g></g><g clip-path="url(#Q)" transform="matrix(7.537450375 0 0 -7.537450375 -1873.32175 2783.79523)"><g clip-path="url(#R)"><path d="m286.8494 337.8307h.1867c.0404-.1917.0757-.3785.1514-.6056.1161-.3432.2675-.7217.2675-1.1002.0404-.2271-.1514-.4139-.3785-.4896-.0757-.0403-.1514-.0757-.2271-.0757-.0757-.0403-.1514-.0403-.1918-.0403-.1514.0403-.2625.116-.3028.2674-.0757.3786.0757.7924.2271 1.2113.1161.3028.2271.5653.2675.8327zm.0757-.3432c-.0404-.1867-.1161-.3785-.1514-.5299-.1514-.4138-.3028-.8327-.2675-1.1355.0404-.0757.0757-.1111.1514-.1111.0404-.0403.1161 0 .1514 0 .0757 0 .1514.0354.1918.0757.1867.0757.3028.1868.3028.3382-.0404.3432-.1514.7217-.2675 1.0598-.0353.1161-.0757.1918-.111.3028z" fill="#fefefe"/></g></g><g clip-path="url(#S)" transform="matrix(7.537450375 0 0 -7.537450375 -1873.32175 2783.79523)"><g clip-path="url(#T)"><path d="m283.0642 328.3627c-1.1002.2272-2.2711.6057-3.4067.8732.0757.7166.1111 1.7058-.6056 1.9683.0757.646-.6813.9841-.8731.3785.1514-.0757.3785-.2625.3785-.4139-.1867-.0404-.4542-.1514-.4895-.3432-.4189.0404-.8328-.3785-.7571-.757.3028.1867.641.1514.8681.111-.3028-.111-.3785-.5299-.1867-.757.2271-.3028.4895-.6056.7923-.8681-.1514-.4189-.3785-.9488-.2271-1.2869-.111-.2675-.4542-.4946-.7167-.4946.3382-.6057 1.1356-.6057 1.3627.1918.4139-.0758.6813.4138.641.757.2271-.0404.4542-.0757.6813-.1161 0-.3028-.2271-.4895-.4542-.6409.4189-.4189 1.1002-.1161 1.1002.4895.641-.111 1.2466-.3785 1.8926-.5653-.0757.4543.0353 1.0599 0 1.4737z" fill="#ac141a"/></g></g><g clip-path="url(#U)" transform="matrix(7.537450375 0 0 -7.537450375 -1873.32175 2783.79523)"><g clip-path="url(#V)"><path d="m133.08 151.96c-2.18.45-4.5 1.2-6.75 1.73.15 1.42.22 3.38-1.2 3.9.15 1.28-1.35 1.95-1.73.75.3-.15.75-.52.75-.82-.37-.08-.9-.3-.97-.68-.83.08-1.65-.75-1.5-1.5.6.37 1.27.3 1.72.22-.6-.22-.75-1.05-.37-1.5.45-.6.97-1.2 1.57-1.72-.3-.83-.75-1.88-.45-2.55-.22-.53-.9-.98-1.42-.98.67-1.2 2.25-1.2 2.7.38.82-.15 1.35.82 1.27 1.5.45-.08.9-.15 1.35-.23 0-.6-.45-.97-.9-1.27.83-.83 2.18-.23 2.18.97 1.27-.22 2.47-.75 3.75-1.12-.15.9.07 2.1 0 2.92z" fill="none" stroke="#f3f3f3" stroke-miterlimit="10" stroke-width=".22505" transform="matrix(.5046904 0 0 .5046904 215.9 251.67)"/></g></g><g clip-path="url(#W)" transform="matrix(7.537450375 0 0 -7.537450375 -1873.32175 2783.79523)"><g clip-path="url(#X)"><path d="m283.0642 328.4788.0757-.0404v-.0353c.0353-.2675 0-.5299 0-.7974 0-.2624-.0404-.4895 0-.6813v-.1514l-.1161.0403c-.2624.0757-.4895.1515-.757.2272-.3382.111-.6814.2271-1.0195.3028-.0404-.1918-.1161-.3432-.2271-.4543-.0404-.0403-.1161-.116-.2271-.1514-.0757-.0403-.1514-.0403-.2675-.0403-.1867 0-.3785.0403-.5299.1917l-.0757.0758.116.0757c.0758.0757.1868.1514.2625.2271s.1161.1514.1161.2624c-.0404 0-.0757 0-.1161.0404-.1514 0-.2625.0353-.3785.0353 0-.0353 0-.0757 0-.111-.0354-.1514-.0757-.3028-.1868-.4189-.116-.111-.2271-.2271-.4189-.2271h-.0353c-.0757-.2271-.2675-.4139-.4189-.4896-.111-.0757-.1867-.0757-.3028-.0757-.0757-.0404-.1867 0-.2624 0-.2271.0757-.3785.2271-.53.4542l-.0403.1111h.116c.1111 0 .2625.0403.3786.1514.111.0757.1867.1514.2271.2675-.1161.3381.0757.8327.2271 1.2112.0353.0354.0353.0354.0353.0757-.1514.1111-.2624.2271-.4138.3382-.1161.1514-.2675.3028-.3785.4946-.0404.0353-.0758.0757-.0758.1514-.0403.111-.0403.2271 0 .3381.0354.0757.0758.1514.1111.2271-.0757 0-.1514 0-.2271 0-.1111 0-.2625-.0353-.3785-.111l-.1111-.0404v.1161.1514c0 .1514.0757.3028.1868.4189.1514.1514.3028.2271.4542.2624h.1161c.0353.0757.111.1514.1867.1918.0757.0757.1918.1111.2675.1111 0 .0403-.0404.0757-.0404.116-.0757.0757-.1867.1514-.2624.1868l-.0757.0403v.0757c.0757.1868.2271.3029.3785.3382.0757.0404.1514.0404.2624 0 .0757-.0353.1514-.0757.1918-.111.1514-.1515.2624-.3432.2271-.6057.3785-.1514.5299-.4542.6056-.8378.0757-.3785.0757-.757.0354-1.1355.4946-.111.9841-.2271 1.4383-.3382.646-.1917 1.2517-.3431 1.8573-.4542zm-.0757-.1514c-.6056.111-1.2113.2625-1.8169.4139-.4946.1514-1.0245.3028-1.5141.4189h-.0757v.0757c.0354.3381.0757.757 0 1.1355-.0757.3432-.2271.646-.5703.7217l-.0757.0353v.0758c.0404.2271-.0353.4188-.1514.4945-.0353.0354-.0757.0758-.1514.1111-.0353 0-.111 0-.1514 0-.0757 0-.1514-.0757-.1867-.1868.0757-.0403.1514-.116.2271-.1917s.111-.1868.111-.3029v-.0353l-.0757-.0404c-.0757 0-.1867-.0353-.2624-.0757-.0757-.0757-.1514-.111-.1514-.1867v-.0757h-.0757c-.0757.0353-.1161.0353-.1514 0-.1515 0-.2675-.0757-.3432-.1918-.1111-.0757-.1868-.1918-.1868-.3028.1111.0353.2271.0353.3028.0757.1868 0 .3786-.0404.4896-.0404l.0404-.1867c-.0404 0-.0757 0-.1161-.0404-.0353-.0353-.0757-.111-.111-.1867 0-.0757 0-.1918 0-.2675 0-.0353.0353-.0757.0757-.111.111-.1514.2271-.3028.3785-.4543.111-.116.2624-.2674.4138-.3785l.0404-.0403-.0404-.0757c0-.0354 0-.0758-.0353-.0758-.1514-.4138-.3432-.868-.1918-1.1355v-.0757c-.0757-.1514-.1867-.2624-.3381-.3785-.0757-.0757-.1918-.1111-.3028-.1514.111-.1111.2271-.1868.3381-.2271.0757-.0354.1514-.0354.2271-.0354s.1514.0354.2271.0757c.1514.0757.2675.2271.3432.4543l.0353.0757h.0757.0757c.1161 0 .1918.0353.2675.1514.1111.0757.1514.2271.1868.3381v.1918.0757h.116c.1111 0 .2625-.0404.4139-.0757.0757 0 .1514-.0404.2271-.0404h.0757v-.0757c0-.1867-.0757-.3028-.1514-.4542-.0757-.0757-.1514-.1514-.2624-.1867.111-.0758.2271-.1161.3381-.1161.0757 0 .1514.0403.1918.0403.0757.0354.1514.0758.1867.1515.1161.0757.1514.2271.1514.4138v.1161l.1161-.0404c.4138-.0757.7924-.1867 1.1709-.3028.1918-.0757.4189-.1514.6056-.2271 0 .1918 0 .4189.0404.6056v.7217z" fill="#fefefe"/></g></g><g clip-path="url(#Y)" transform="matrix(7.537450375 0 0 -7.537450375 -1873.32175 2783.79523)"><g clip-path="url(#Z)"><path d="m285.2949 333.6267c-.6056.1917-1.7412.3785-2.3468.116-.9841-.4946-1.6251-.4946-2.4982-.1917.0757-.4543.4189-.5653.757-.7571-.4138-.3381-.757-.4895-1.3223-.5299.4543-.6813 1.6655-.4895 2.2308.0757.8731.9084 2.044 1.0599 3.1795.7217.0404.0353.0757.0757.1161.111.0757.1918 0 .3432-.1161.4543z" fill="#ac141a"/></g></g><g clip-path="url(#aa)" transform="matrix(7.537450375 0 0 -7.537450375 -1873.32175 2783.79523)"><g clip-path="url(#ab)"><path d="m285.3353 333.7024.0353-.0354c.0757-.0403.1161-.1514.1161-.2271.0353-.0757.0353-.1918 0-.2675v-.0353c-.0404-.0404-.0757-.0757-.1161-.1514l-.0353-.0404-.0404.0404c-.6056.1514-1.1709.1867-1.7412.0757-.4895-.1161-.9841-.3785-1.3626-.7974-.0757-.0353-.1514-.111-.2271-.1514-.3028-.2271-.6814-.3381-1.0599-.3785-.3785 0-.7166.0757-.9841.3432-.0354.0353-.0757.0757-.1111.1514l-.0757.111h.1111c.3028.0404.5299.0757.7217.1514.1514.0757.3028.1918.4895.3028-.0353 0-.0353 0-.0353 0-.2675.1514-.5703.3028-.646.7217l-.0353.1514.111-.0403c.4542-.1514.8327-.2271 1.2113-.1868.3785 0 .757.1514 1.2516.3785.2624.1111.6409.1515 1.0195.1515.4946-.0404 1.0245-.1515 1.403-.2675zm-.0757-.1514c-.3432.116-.8731.2271-1.3273.2271-.3786.0403-.7167 0-.9438-.1111-.5299-.2674-.9488-.3785-1.3273-.4189-.3382 0-.7167.0404-1.0952.1515.111-.2272.3381-.3382.5299-.4543.0757-.0353.111-.0353.1514-.0757l.111-.0353-.111-.1161c-.2271-.1514-.4189-.3028-.6056-.3785-.1918-.0757-.3785-.111-.6057-.1514.2272-.2271.53-.3028.8681-.2624.3432 0 .6813.111.9488.3028.0757.0353.1514.111.1868.1514.4542.4542.9488.7166 1.4787.8327.5653.1514 1.1709.1111 1.7765-.0757 0 .0353.0404.0757.0404.0757.0353.0757.0353.1111 0 .1868 0 .0403-.0404.116-.0757.1514z" fill="#fefefe"/></g></g><g clip-path="url(#ac)" transform="matrix(7.537450375 0 0 -7.537450375 -1873.32175 2783.79523)"><g clip-path="url(#ad)"><path d="m287.7578 316.8154c-.1867 0-.5299-.0353-.646-.1514.3079-.2271.6864-.2271.9892-.4542-2.3115-1.8926-4.6987-.6813-4.6583.8327.0353 1.5545 2.155 2.2005 4.3151-.2271zm-6.5105 7.2322c.0757-.3028.2624-.868.6056-.9841-.116-.2624-.2271-.3381-.5299-.3785-.1918-.4542 1.1709-.7924 1.0599.4542.3028.0757.3381.5703.2271.8327.1867.0757.4138.2272.6056.3029.1867-.0354.0757-.4139-.3432-.641.4189-.646 1.1002.1514.9488.6813.8681-1.1759 2.5739-1.0598 2.9525-2.9928.111.2271.2271.8328.111 1.1759.4946-.3431.8378-1.1002 1.0245-1.8168.1514.2271.3028.4895.3432.8327.3028-.4189.7924-1.2113.8327-1.7059.0354-.5299-.116-.7923-.3028-1.3273.2271.0757.53.2322.6814.4593-.1161-.7217-.2675-1.3677-.7571-1.8573-.4189.5299-.9841 1.398-1.6301 1.5898.1867.0757.6813 0 .9084-.0757-1.3626 1.8926-4.5422 1.403-5.3396-.0404-.2624.3079-.3381.7217-.4138 1.1759-.53-.6056-.53-1.8925-.1161-2.2711-.4139.1514-.641.4139-.9842.7167-.111-.4896-.0757-1.1356.3785-1.5141-.5299.1918-1.0194.4946-1.3979.9488-.0758-.8327.9437-2.16 2.0793-2.3871.4189-.7924 1.9329-1.398 3.1038-1.287-.111-.111-.3028-.3785-.3028-.5299.3028.1918.4946.3785.7217.3785.5653.0404 2.1197.6813 2.69 1.1355-.1161-1.9683-2.7304-3.0634-3.1846-4.9964.2675.2675.4946.5299.8328.6813-.2272-.4542-.3786-1.0194-.4139-1.5494.1867.2625.3785.4896.5653.6057-.4896-1.6655-.2625-2.9575.2271-4.4716-.3382.5299-.8328 1.2113-1.3223 1.6705.6056-2.049 1.2112-4.5472 1.5898-6.7038.4542 2.308.9488 4.7305 1.5897 6.8552-.4895-.4946-.868-1.1002-1.2516-1.7815-.8681 1.933-.0757 4.3555 1.0245 6.3238.1514-.3432.3028-.7571.4946-1.0599.0354.9842.1111 1.7008.4139 2.4982.2675.7924.3432 1.8522.2675 2.5336.6409.5703 1.2112 1.3626 1.3626 2.6496.1514-.3028.1868-.6813.2271-1.1709.3785.6813.4139 1.8926.3028 2.8414.3029-.2675.53-.7217.7167-1.2516.0757 1.0598-.0353 2.3872-.757 3.5984.3785-.3432.646-.7217.9841-1.1759.1161 1.403-.9084 3.6741-2.8767 4.9964.0757.1161.1918.2675.3432.3432.8327.0354 1.7765.0354 2.4982-.0757-.1918.3382-.5703.6814-.9488.9085.4542.1867 1.3273.0353 2.1197.1867.757.1161 1.3273.5299 2.1954.7974-.5653.111-1.5494.3028-2.3468.3028 1.514.2625 2.9928.9842 4.2394 2.2358-.53.0757-1.0599-.2675-1.6655-.1918.8731.3785 1.5898 1.1356 1.9683 1.933-.3785.0757-.8681-.1161-1.287-.1161.4542.4542 1.287.757 1.5898 1.5141-.4542-.0354-.9438-.1514-1.398-.3382.6056.6057.9841 1.3627 1.2113 2.0794-1.0599-.4896-1.9683-1.3223-3.4824-1.8169.5299.5299.7166 1.0245 1.0195 1.4787-.3382-.0757-.6057-.3028-.9438-.6056.3785.6409.5652 1.5494.5299 2.2307-.8327-1.9683-5.6777-5.2235-6.3591-7.2322-.2271.3785-.6056.4946-1.0598.7217.3028-.1161.6409-.3028.9437-.3432.0404.5703-.3028.9488-.6056 1.5545.3028-.4543.6056-.641 1.0245-.7924-.0757.6813-.0403 1.2466-.6056 1.8522.5299-.3381 1.2466-.4138 1.8169-.4895-.1514.6409-.8731 1.3223-1.4788 1.7008.6461-.3785 1.5141-.6057 1.8169-.6057-.3028.4543-.7923 1.176-1.6251 1.5141.1111.1918.3382.2271.5653.2675-.0757.1867-.4542.3785-.7924.4139.3382.5299.6056.9841.7167 1.4787-2.1601-1.1002-4.9208-1.933-6.3995-1.403.0404-.2625.1514-.5653.2675-.8328 0-.3028 0-.5299.0353-.8327.1161.4946.4542.5703.8731.5703.641 0 .9085-.2271 1.0952-.5299.1514-.1918.4542-.4543.3432-.7218-.1918-.4138-1.3273-.6409-1.7412-.7923-.1514-.0757-.3432.3381-.5703.4895.0404-.5299-.0757-1.398.1161-1.398.2624 0 .9438.3786 1.6655.6057-1.1002-.4543-1.6655-.6057-2.3468-2.0491.3028.3785.7923.6107 1.0194.7974-.4895-.4542-1.0598-1.2516-1.2465-2.044.2271.3029.4895.4896.757.7571-.5299-.9085-1.2516-2.69-.1161-3.9013l-1.2466-.757c-.1918.0757-.3432.3785-.4542.8731-.1161.3785-.5703.641-.7974.4138-.3381.5703-1.4384.3786-1.287-.4895.2675.2624.7571.2624.8328-.0757-.4542-.0757-.7571-.6056-.5653-1.1356.0757.3382.3382.2271.4896.3382 0-.7167.6056-.7167 1.3273-.7571z" fill="#ac141a"/></g></g><g clip-path="url(#ae)" transform="matrix(7.537450375 0 0 -7.537450375 -1873.32175 2783.79523)"><g clip-path="url(#af)"><path d="m142.38 129.08c-.37 0-1.05-.07-1.28-.3.61-.45 1.36-.45 1.96-.9-4.58-3.75-9.31-1.35-9.23 1.65.07 3.08 4.27 4.36 8.55-.45zm-12.9 14.33c.15-.6.52-1.72 1.2-1.95-.23-.52-.45-.67-1.05-.75-.38-.9 2.32-1.57 2.1.9.6.15.67 1.13.45 1.65.37.15.82.45 1.2.6.37-.07.15-.82-.68-1.27.83-1.28 2.18.3 1.88 1.35 1.72-2.33 5.1-2.1 5.85-5.93.22.45.45 1.65.22 2.33.98-.68 1.66-2.18 2.03-3.6.3.45.6.97.68 1.65.6-.83 1.57-2.4 1.65-3.38.07-1.05-.23-1.57-.6-2.63.45.15 1.05.46 1.35.91-.23-1.43-.53-2.71-1.5-3.68-.83 1.05-1.95 2.77-3.23 3.15.37.15 1.35 0 1.8-.15-2.7 3.75-9 2.78-10.58-.08-.52.61-.67 1.43-.82 2.33-1.05-1.2-1.05-3.75-.23-4.5-.82.3-1.27.82-1.95 1.42-.22-.97-.15-2.25.75-3-1.05.38-2.02.98-2.77 1.88-.15-1.65 1.87-4.28 4.12-4.73.83-1.57 3.83-2.77 6.15-2.55-.22-.22-.6-.75-.6-1.05.6.38.98.75 1.43.75 1.12.08 4.2 1.35 5.33 2.25-.23-3.9-5.41-6.07-6.31-9.9.53.53.98 1.05 1.65 1.35-.45-.9-.75-2.02-.82-3.07.37.52.75.97 1.12 1.2-.97-3.3-.52-5.86.45-8.86-.67 1.05-1.65 2.4-2.62 3.31 1.2-4.06 2.4-9.01 3.15-13.283.9 4.573 1.88 9.373 3.15 13.583-.97-.98-1.72-2.18-2.48-3.53-1.72 3.83-.15 8.63 2.03 12.53.3-.68.6-1.5.98-2.1.07 1.95.22 3.37.82 4.95.53 1.57.68 3.67.53 5.02 1.27 1.13 2.4 2.7 2.7 5.25.3-.6.37-1.35.45-2.32.75 1.35.82 3.75.6 5.63.6-.53 1.05-1.43 1.42-2.48.15 2.1-.07 4.73-1.5 7.13.75-.68 1.28-1.43 1.95-2.33.23 2.78-1.8 7.28-5.7 9.9.15.23.38.53.68.68 1.65.07 3.52.07 4.95-.15-.38.67-1.13 1.35-1.88 1.8.9.37 2.63.07 4.2.37 1.5.23 2.63 1.05 4.35 1.58-1.12.22-3.07.6-4.65.6 3 .52 5.93 1.95 8.4 4.43-1.05.15-2.1-.53-3.3-.38 1.73.75 3.15 2.25 3.9 3.83-.75.15-1.72-.23-2.55-.23.9.9 2.55 1.5 3.15 3-.9-.07-1.87-.3-2.77-.67 1.2 1.2 1.95 2.7 2.4 4.12-2.1-.97-3.9-2.62-6.9-3.6 1.05 1.05 1.42 2.03 2.02 2.93-.67-.15-1.2-.6-1.87-1.2.75 1.27 1.12 3.07 1.05 4.42-1.65-3.9-11.25-10.35-12.6-14.33-.45.75-1.2.98-2.1 1.43.6-.23 1.27-.6 1.87-.68.08 1.13-.6 1.88-1.2 3.08.6-.9 1.2-1.27 2.03-1.57-.15 1.35-.08 2.47-1.2 3.67 1.05-.67 2.47-.82 3.6-.97-.3 1.27-1.73 2.62-2.93 3.37 1.28-.75 3-1.2 3.6-1.2-.6.9-1.57 2.33-3.22 3 .22.38.67.45 1.12.53-.15.37-.9.75-1.57.82.67 1.05 1.2 1.95 1.42 2.93-4.28-2.18-9.75-3.83-12.68-2.78.08-.52.3-1.12.53-1.65 0-.6 0-1.05.07-1.65.23.98.9 1.13 1.73 1.13 1.27 0 1.8-.45 2.17-1.05.3-.38.9-.9.68-1.43-.38-.82-2.63-1.27-3.45-1.57-.3-.15-.68.67-1.13.97.08-1.05-.15-2.77.23-2.77.52 0 1.87.75 3.3 1.2-2.18-.9-3.3-1.2-4.65-4.06.6.75 1.57 1.21 2.02 1.58-.97-.9-2.1-2.48-2.47-4.05.45.6.97.97 1.5 1.5-1.05-1.8-2.48-5.33-.23-7.73l-2.47-1.5c-.38.15-.68.75-.9 1.73-.23.75-1.13 1.27-1.58.82-.67 1.13-2.85.75-2.55-.97.53.52 1.5.52 1.65-.15-.9-.15-1.5-1.2-1.12-2.25.15.67.67.45.97.67 0-1.42 1.2-1.42 2.63-1.5z" fill="none" stroke="#fefefe" stroke-miterlimit="10" stroke-width=".37508" transform="matrix(.5046904 0 0 .5046904 215.9 251.67)"/></g></g><g clip-path="url(#ag)" transform="matrix(7.537450375 0 0 -7.537450375 -1873.32175 2783.79523)"><g clip-path="url(#ah)"><path d="m288.7823 317.0072c-.0757-.0404-.2271-.1161-.4189-.1514-.2271-.0404-.4542-.1161-.6056-.1161l-.0353.1514c.1514.0404.3785.0757.6056.1161.1514.0757.2625.111.3382.1514z" fill="#fefefe"/></g></g><g clip-path="url(#ai)" transform="matrix(7.537450375 0 0 -7.537450375 -1873.32175 2783.79523)"><g clip-path="url(#aj)"><path d="m288.3634 314.9985c.0404.0404.0757.0404.1514.1161.2272.1514.53.3382.6814.4896l.1161-.1111c-.1514-.1514-.4946-.3785-.6814-.5299-.0757-.0404-.1514-.0757-.1918-.1161z" fill="#fefefe"/></g></g><g clip-path="url(#ak)" transform="matrix(7.537450375 0 0 -7.537450375 -1873.32175 2783.79523)"><g clip-path="url(#al)"><path d="m280.677 325.0722c-.1867 0-.3785-.0404-.4895-.1161-.1161-.0353-.1515-.0757-.1515-.1514h-.1917c0 .1514.116.2675.2675.3028.1514.0757.3785.1161.5652.1161z" fill="#fefefe"/></g></g><g clip-path="url(#am)" transform="matrix(7.537450375 0 0 -7.537450375 -1873.32175 2783.79523)"><g clip-path="url(#an)"><path d="m281.7772 323.1039c.0354.111.1514.1514.2271.1867.0757.0404.1514.0404.1868.0404.0757 0 .1161-.0404.1918-.0404.0353-.0353.0757-.0757.0757-.1514h-.1918s-.0353 0-.0757 0c-.0354.0404-.0757 0-.1111 0-.0757 0-.116-.0353-.1514-.0757z" fill="#fefefe"/></g></g><g clip-path="url(#ao)" transform="matrix(7.537450375 0 0 -7.537450375 -1873.32175 2783.79523)"><g clip-path="url(#ap)"><path d="m286.0166 334.7622c.1514.0757.4543.1161.53.1161.1867-.0404.5299-.2675.4138-.3785-.0757-.0404-.4895-.3028-.4138-.1161.111.4189-.2272.3432-.53.3785z" fill="#fefefe"/></g></g><g clip-path="url(#aq)" transform="matrix(7.537450375 0 0 -7.537450375 -1873.32175 2783.79523)"><g clip-path="url(#ar)"><path d="m286.2437 334.6108c.0757 0 .1514-.0757.1514-.111 0-.0757-.0757-.1161-.1514-.1161s-.116.0404-.116.1161c0 .0353.0403.111.116.111z" fill="#fefefe"/></g></g><g clip-path="url(#as)" transform="matrix(7.537450375 0 0 -7.537450375 -1873.32175 2783.79523)"><g clip-path="url(#at)"><path d="m283.7455 324.3151c-.0404.1111-.0757.1868-.1161.2625-.0353.0403-.0353.0403-.0353.0757l-.0404.0403.0404.0354c.2625.1514.9085.6056 1.398.9841.2675.1918.4946.3785.646.4946.1514.0757.3028.1514.4896.1868.2271.0757.4946.0757.7974.0403v-.1161c-.3028.0404-.5703 0-.7571-.0353-.1917-.0404-.3028-.1161-.4542-.2271-.1514-.0757-.3785-.2675-.6056-.4542-.4946-.3432-1.0599-.7974-1.3627-.9488.0354-.0757.1111-.1868.1514-.3028z" fill="#fefefe"/></g></g><g clip-path="url(#au)" transform="matrix(7.537450375 0 0 -7.537450375 -1873.32175 2783.79523)"><g clip-path="url(#av)"><path d="m286.052 329.4983c-1.2466-.0353-1.8523-1.0599-1.8926-1.9683.4542.1918 0-.6056-.4543-1.0952-.3028-.3432-.7923-.7217-.757-.7974.0757-.0757.5299.4189.7974.6813.3785.3786.5653.7218.6814.9085.111.2271.6056.8327.2624.757-.0757.5703.5703 1.3627 1.3627 1.5141z" fill="#fefefe"/></g></g><g clip-path="url(#aw)" transform="matrix(7.537450375 0 0 -7.537450375 -1873.32175 2783.79523)"><g clip-path="url(#ax)"><path d="m280.4903 326.0916c-.0404-.0353-.1514-.1514-.2675-.2624-.0353-.0757-.111-.1514-.1514-.2271l-.1514.0353c.0403.1161.116.1918.1918.2675.0757.1514.1867.2624.2624.3028z" fill="#fefefe"/></g></g><g clip-path="url(#ay)" transform="matrix(7.537450375 0 0 -7.537450375 -1873.32175 2783.79523)"><g clip-path="url(#az)"><path d="m280.036 325.7535c.0354-.0404.0354-.0404.0354-.0757.1161-.0757.1918-.1918.1918-.3028 0-.1161 0-.2271-.0404-.3028 0-.0404-.0353-.0404-.0353-.0757l-.1515.0757c0 .0353.0354.0353.0354.0353 0 .0757.0404.1514.0404.2675-.0404.0353-.0404.111-.1161.1514l-.0354.0353-.0403.0404s0 .0353-.0354.0757z" fill="#fefefe"/></g></g><g clip-path="url(#aA)" transform="matrix(7.537450375 0 0 -7.537450375 -1873.32175 2783.79523)"><g clip-path="url(#aB)"><path d="m279.0115 331.0931c-.0353.0353-.1867 0-.3028 0-.0757 0-.111-.0404-.1514-.0404v.1918h.1161c.111.0354.3028.0354.3785.0354z" fill="#fefefe"/></g></g><g clip-path="url(#aC)" transform="matrix(7.537450375 0 0 -7.537450375 -1873.32175 2783.79523)"><g clip-path="url(#aD)"><path d="m278.1435 330.22v.0353c.0353.0404.0353.0757.0353.1161 0 .0757 0 .1514-.0353.2271-.0404.0404-.0757.1161-.1161.1514l.0757.1161c.0757-.0404.1514-.1161.1918-.1918.0353-.1161.0353-.1918.0757-.2675 0-.111-.0404-.1867-.0757-.2624-.0404 0-.0404-.0404-.0757-.0757z" fill="#fefefe"/></g></g><g clip-path="url(#aE)" transform="matrix(7.537450375 0 0 -7.537450375 -1873.32175 2783.79523)"><g clip-path="url(#aF)"><path d="m278.8601 328.6302c.1161-.0757.1514-.1918.2271-.2675.0404-.0757.1161-.1514.1918-.2271l-.1161-.1514c-.111.1161-.1514.1918-.2271.3028-.0353.0757-.111.1514-.1867.2272z" fill="#fefefe"/></g></g><g clip-path="url(#aG)" transform="matrix(7.537450375 0 0 -7.537450375 -1873.32175 2783.79523)"><g clip-path="url(#aH)"><path d="m279.1276 326.9648v.0757c0 .0353 0 .0353-.0404.0757-.0353.0353-.0757.0353-.111.0757-.1161 0-.2675.0353-.4189 0l-.0353.1514c.1867.0353.3381.0353.4895 0 .0757-.0404.1514-.0757.1918-.1161.0353-.0353.0757-.111.111-.1514 0-.0353 0-.111 0-.1514z" fill="#fefefe"/></g></g><g clip-path="url(#aI)" transform="matrix(7.537450375 0 0 -7.537450375 -1873.32175 2783.79523)"><g clip-path="url(#aJ)"><path d="m293.0571 328.4031c-.2271-.0404-.5653-.0404-.9438-.1161-.3432-.0353-.7217-.111-1.0245-.2271l-.0354.1514c.3029.1161.6814.1918 1.0599.2675.3785.0354.7167.0757.9438.0757z" fill="#fefefe"/></g></g><g clip-path="url(#aK)" transform="matrix(7.537450375 0 0 -7.537450375 -1873.32175 2783.79523)"><g clip-path="url(#aL)"><path d="m287.4197 333.5913c-.2322-.4542-.5703-1.2112-.7974-1.3626-.8732.0757-1.7816-.2271-1.8169-.1918-.0404.0757.8327.2675 1.6655.3028.0353.4542.4895.8327.9488 1.2516z" fill="#fefefe"/></g></g><g clip-path="url(#aM)" transform="matrix(7.537450375 0 0 -7.537450375 -1873.32175 2783.79523)"><g clip-path="url(#aN)"><path d="m281.5501 316.7044c.1111-.0757.3028-.1918.5299-.2271.1515-.0404.3029-.0404.4139.0757l.1161-.1514c-.1918-.1161-.3785-.1514-.53-.1161-.2674.0404-.5299.1918-.646.3028z" fill="#fefefe"/></g></g><g clip-path="url(#aO)" transform="matrix(7.537450375 0 0 -7.537450375 -1873.32175 2783.79523)"><g clip-path="url(#aP)"><path d="m287.1118 318.597c-.111-.0404-.2624-.0404-.3785-.0404-.1514.0404-.2624.0757-.3785.1161-.1111.0404-.1868.0757-.2625.1514-.1514.0757-.2675.1918-.646.3028l.0404.1514c.4139-.111.5653-.2271.6813-.3028.0757-.0757.1514-.111.2625-.1514.0757-.0353.1918-.0757.3028-.0757.1161-.0353.2271-.0353.3028 0z" fill="#fefefe"/></g></g><g clip-path="url(#aQ)" transform="matrix(7.537450375 0 0 -7.537450375 -1873.32175 2783.79523)"><g clip-path="url(#aR)"><path d="m288.2524 312.7678c-.0757-.1918-.1161-.4542-.1514-.6813 0-.1918 0-.3785.0353-.4946l-.1514-.0353c-.0757.111-.0757.3381-.0353.5299 0 .2624.0757.5299.111.7166z" fill="#fefefe"/></g></g><g clip-path="url(#aS)" transform="matrix(7.537450375 0 0 -7.537450375 -1873.32175 2783.79523)"><g clip-path="url(#aT)"><path d="m282.6453 317.31c-.111 0-.2271 0-.3028 0-.0757.0354-.1868.0354-.2625.0757l.0757.1514c.0758 0 .1515-.0403.2272-.0403.0757-.0354.1514-.0354.2271 0z" fill="#fefefe"/></g></g><g clip-path="url(#aU)" transform="matrix(7.537450375 0 0 -7.537450375 -1873.32175 2783.79523)"><g clip-path="url(#aV)"><path d="m290.2964 321.2113c.0353-.2271 0-.3432-.0404-.4946-.0353-.111-.0757-.1867-.0353-.3382l-.1161-.0403c-.0353.1918 0 .3028.0404.4189.0353.111.0353.2271.0353.4138z" fill="#fefefe"/></g></g><g clip-path="url(#aW)" transform="matrix(7.537450375 0 0 -7.537450375 -1873.32175 2783.79523)"><g clip-path="url(#aX)"><path d="m285.411 324.6936c.0757-.0757.1867-.116.2624-.1514.0757 0 .1514 0 .1918.0354.0757 0 .1111.0403.1514.116.0354.0758.0354.1868.0354.3029v.111l.0757-.0353c.3028-.0757.4542-.0757.4946.0353.0757.0757.0353.2675-.0404.4946l.1161.0353c.111-.2624.111-.4542.0353-.6056-.0757-.111-.2624-.1867-.5653-.111 0-.1161-.0403-.1918-.0757-.2675-.0403-.1111-.0757-.1514-.1917-.1868-.0758-.0403-.1515-.0403-.2272-.0403-.111.0403-.2271.116-.3381.1917z" fill="#fefefe"/></g></g><g clip-path="url(#aY)" transform="matrix(7.537450375 0 0 -7.537450375 -1873.32175 2783.79523)"><g clip-path="url(#aZ)"><path d="m295.1414 334.0456c-.1514-.0757-.2675-.1161-.4189-.1918-.1514-.0354-.3028-.1111-.4542-.1514-.5652-.1514-1.0598-.3382-1.4737-.53-.4189-.1867-.7974-.4138-1.1759-.6813-.111-.0353-.1514-.0757-.2271-.111-.9842-.646-2.4225-1.5545-2.801-2.7304l-.1868.0757c.4139 1.2163 1.8926 2.1601 2.8768 2.7657.111.0757.1867.1161.2271.1514.4138.2675.7923.4946 1.2112.6814.4139.1917.9085.3785 1.4737.5299.1514.0757.3028.1161.4542.1918.1514.0353.2675.111.4189.1514z" fill="#fefefe"/></g></g><g clip-path="url(#a0)" transform="matrix(7.537450375 0 0 -7.537450375 -1873.32175 2783.79523)"><g clip-path="url(#a1)"><path d="m289.1205 328.5899c.4946 1.4383 2.6143 3.5227 5.1882 4.5825-1.933-.5299-5.1882-2.9171-5.1882-4.5825z" fill="#fefefe"/></g></g><g clip-path="url(#a2)" transform="matrix(7.537450375 0 0 -7.537450375 -1873.32175 2783.79523)"><g clip-path="url(#a3)"><path d="m296.4284 332.3044c-1.8573 0-3.1796-.6057-4.2798-1.4384.5299.6813 1.5898 1.3223 2.5386 1.5898.3382.0757.7924-.1918 1.7008 0z" fill="#fefefe"/></g></g><g clip-path="url(#a4)" transform="matrix(7.537450375 0 0 -7.537450375 -1873.32175 2783.79523)"><g clip-path="url(#a5)"><path d="m295.7067 330.4471c-1.9683.0757-3.7095-.5299-5.1479-1.3626.646.7166 2.044 1.0598 3.1443 1.4383.3028.1161 1.2869.0353 2.0793.0757 0-.0404-.111-.1161-.0757-.1514z" fill="#fefefe"/></g></g><g clip-path="url(#a6)" transform="matrix(7.537450375 0 0 -7.537450375 -1873.32175 2783.79523)"><g clip-path="url(#a7)"><path d="m286.7333 324.4262c.0757.0403.1161.116.1918.1514.0353.0757.0353.116.0353.1918l.1161.0353c.0757-.0757.1867-.0757.2624-.0757.0404 0 .0808 0 .0808.0404h.0353l.0404-.0404c0-.0354.0353-.0757.0353-.1111.0757-.116.1514-.2271.1514-.3431 0-.1111-.0757-.1868-.1514-.2625-.0353-.0404-.0757-.0757-.0757-.1161l-.1161.0404c.0404.0757.0808.111.1161.1514.0404.0757.1161.1111.1161.1868s-.0757.1917-.1161.2674c-.0353.0354-.0353.0757-.0353.0757-.0404 0-.0404 0-.0404 0-.1161 0-.1918 0-.3028.0354 0-.0354-.0404-.0757-.0757-.1514-.0404-.0757-.1514-.1111-.2271-.1868z" fill="#fefefe"/></g></g><g clip-path="url(#a8)" transform="matrix(7.537450375 0 0 -7.537450375 -1873.32175 2783.79523)"><g clip-path="url(#a9)"><path d="m287.6468 324.3151c.0353 0 .0757-.0403.111-.0757.1161-.0403.1918-.1161.2675-.1918.0757-.1514.0757-.3028.111-.4542 0-.0353 0-.0757 0-.0757l-.111-.0353v.0757c-.0404.1514-.0404.3028-.1161.4138-.0353.0757-.111.1161-.1867.1918-.0404 0-.1161.0354-.1514.0757z" fill="#fefefe"/></g></g><g clip-path="url(#ba)" transform="matrix(7.537450375 0 0 -7.537450375 -1873.32175 2783.79523)"><g clip-path="url(#bb)"><path d="m287.9496 324.0476c0 .0404.0353.0404.0353.0757.0404.0404.1161.1161.1161.1515v.1917c0 .0354-.0404.1111-.0404.1514l.0757.0354c.0404-.0354.0757-.1111.0757-.1868s.0404-.1514 0-.2271c0-.0757-.0757-.1514-.1514-.1918 0-.0353-.0353-.0353-.0353-.0757z" fill="#fefefe"/></g></g><g clip-path="url(#bc)" transform="matrix(7.537450375 0 0 -7.537450375 -1873.32175 2783.79523)"><g clip-path="url(#bd)"><path d="m287.9849 324.6533c.0404 0 .0757 0 .1161.0403.0353 0 .0757.0354.111.0758l.0404-.0404c-.0404-.0354-.0757-.0757-.1161-.1111-.0757 0-.111-.0403-.1867 0z" fill="#fefefe"/></g></g><g clip-path="url(#be)" transform="matrix(7.537450375 0 0 -7.537450375 -1873.32175 2783.79523)"><g clip-path="url(#bf)"><path d="m287.4197 324.729c0 .0404.0353.0404.0353.0404.0404.0353.0404.0353.0404.111v.1514c-.0404.0404-.0757.1161-.1161.1514l.0757.0757c.0757-.0353.1514-.0353.2271 0 .0404 0 .0757.0404.0757.0404.0404.0353.0404.0353.0404.0757.0353 0 .0353.0353.0353.0353l.1161.0404c0-.0404 0-.0757-.0404-.1514 0-.0404-.0353-.0757-.0757-.0757-.0353-.0404-.0757-.0757-.111-.0757-.0404 0-.1161-.0404-.1514 0 0-.0404 0-.0757.0353-.0757 0-.0757.0404-.1514 0-.2271 0-.0757-.0353-.1161-.0757-.1515-.0353-.0403-.0353-.0403-.0757-.0757z" fill="#fefefe"/></g></g><g clip-path="url(#bg)" transform="matrix(7.537450375 0 0 -7.537450375 -1873.32175 2783.79523)"><g clip-path="url(#bh)"><path d="m288.5552 323.7095c.1111-.0757.1514-.2271.1514-.3785 0-.1918-.0403-.3432-.116-.4542l-.1111.0757c.0757.0757.1111.2271.1111.3785 0 .111-.0354.2271-.1111.3028z" fill="#fefefe"/></g></g><g clip-path="url(#bi)" transform="matrix(7.537450375 0 0 -7.537450375 -1873.32175 2783.79523)"><g clip-path="url(#bj)"><path d="m283.2913 329.1198c.111 0 .1867-.0353.3028-.1111.0353 0 .0757-.0403.111-.0757 0 .0757.0404.1111.1161.1868.0354.0757.1111.1514.1868.2271l.0403.0404.0354-.0404c.0403-.0353.0757-.0757.116-.0757h.1111l.0404-.111c-.0758 0-.1161 0-.1918 0-.0354 0-.0757.0353-.1111.0353-.0403-.0353-.116-.0757-.1514-.1514-.0403-.0757-.116-.1514-.116-.2271l-.0354-.1514-.0757.116c-.0404.0757-.0757.1111-.1514.1514-.0757.0354-.1514.0757-.2271.0757z" fill="#fefefe"/></g></g><g clip-path="url(#bk)" transform="matrix(7.537450375 0 0 -7.537450375 -1873.32175 2783.79523)"><g clip-path="url(#bl)"><path d="m283.7809 328.8573c0-.0403 0-.0757 0-.1514v-.0403h.0757c.0757 0 .1514-.0354.1917-.0757v-.0354c0-.0757 0-.1514 0-.2675-.0403-.0757-.0757-.1514-.116-.2271l-.1111.0757c.0354.0404.0757.1161.1111.1918v.1868s-.0354.0403-.0757.0403c-.0354 0-.0757 0-.1111 0l-.1514-.0403.0757.116v.0757.0757z" fill="#fefefe"/></g></g><g clip-path="url(#bm)" transform="matrix(7.537450375 0 0 -7.537450375 -1873.32175 2783.79523)"><g clip-path="url(#bn)"><path d="m283.7455 328.5545-.1161-.1161-.0757.0758.1161.116z" fill="#fefefe"/></g></g><g clip-path="url(#bo)" transform="matrix(7.537450375 0 0 -7.537450375 -1873.32175 2783.79523)"><g clip-path="url(#bp)"><path d="m284.2754 330.4824c0-.111 0-.1867 0-.3028 0-.0757 0-.1867 0-.2624 0 0 .0354-.0404.0354-.0404.0757-.0353.1918-.0757.2271-.1514l-.0757-.0757c-.0353.0757-.111.1161-.1868.1161-.0403.0353-.0757.0353-.0757.0353l-.0403.0404v.3785.2624z" fill="#fefefe"/></g></g><g clip-path="url(#bq)" transform="matrix(7.537450375 0 0 -7.537450375 -1873.32175 2783.79523)"><g clip-path="url(#br)"><path d="m284.2351 329.8011c-.0354 0-.0757-.0353-.1111-.0353-.0403-.0404-.0757-.0757-.0757-.1161l-.116.0757c.0403.0404.0757.0757.116.1161.0757.0353.1111.0757.1514.0757z" fill="#fefefe"/></g></g><g clip-path="url(#bs)" transform="matrix(7.537450375 0 0 -7.537450375 -1873.32175 2783.79523)"><g clip-path="url(#bt)"><path d="m284.3512 330.7146c0-.0757.1514-.1565.2624-.2322.0404 0 .0757-.0353.1161-.0353l-.0757-.1161c-.0404.0404-.0757.0404-.1161.0757-.111.0757-.2625.1514-.3028.3079z" fill="#fefefe"/></g></g><g clip-path="url(#bu)" transform="matrix(7.537450375 0 0 -7.537450375 -1873.32175 2783.79523)"><g clip-path="url(#bv)"><path d="m281.0959 292.0195h-.8327v2.6123h-.3432v.0757l.4542 1.022h.7217z" fill="#ac141a"/></g></g><g clip-path="url(#bw)" transform="matrix(7.537450375 0 0 -7.537450375 -1873.32175 2783.79523)"><g clip-path="url(#bx)"><path d="m284.8054 294.1018v1.1734h-1.1003v-1.1734zm.8327-1.7416c0-.2272-.1918-.3407-.5299-.3407h-1.7059c-.3381 0-.4895.1135-.4895.3407v.7948h.8327v-.6434h1.0195l.0404 1.0977h-1.4031c-.3381 0-.5299.114-.5299.3411v1.4384c0 .2271.1918.3407.5299.3407h1.7059c.3381 0 .5299-.1136.5299-.3407z" fill="#ac141a"/></g></g><g clip-path="url(#by)" transform="matrix(7.537450375 0 0 -7.537450375 -1873.32175 2783.79523)"><g clip-path="url(#bz)"><path d="m289.3476 292.5116v2.7258h-1.0952l-.0404-2.7258zm.8327-.1514c0-.2272-.1867-.3407-.5299-.3407h-1.7412c-.3381 0-.4895.1135-.4895.3407v3.0286c0 .2271.1514.3407.4895.3407h1.7412c.3432 0 .5299-.1136.5299-.3407z" fill="#ac141a"/></g></g><g clip-path="url(#bA)" transform="matrix(7.537450375 0 0 -7.537450375 -1873.32175 2783.79523)"><g clip-path="url(#bB)"><path d="m294.6115 294.6696c-.0404-.1135-.0757-.2271-.1918-.3785l-1.5494-1.7795h1.7008v-.4921h-2.7253v.3407l1.933 2.1959v.6813h-1.0599v-.6813h-.7974v.8327c0 .2271.1514.3407.4946.3407h1.6655c.3381 0 .5299-.1136.5299-.3407z" fill="#ac141a"/></g></g></svg>